<svg xmlns="http://www.w3.org/2000/svg" viewBox="0 0 40.52 28.18"><defs><style>.cls-1{fill:#1a80e0;}</style></defs><title>Ikona_Wózek_blue</title><g id="Warstwa_2" data-name="Warstwa 2"><g id="Warstwa_1-2" data-name="Warstwa 1"><circle class="cls-1" cx="18.62" cy="25.66" r="2.53"/><circle class="cls-1" cx="6.73" cy="25.66" r="2.53"/><path class="cls-1" d="M39.42,25.83H29.22a1.1,1.1,0,0,1-1.1-1.1V1.1a1.1,1.1,0,0,1,2.2,0V23.63h9.1a1.1,1.1,0,0,1,0,2.2Z"/><path class="cls-1" d="M25.07,16.35C22.8,12.63,16.81,2.66,16.75,2.56a1.7,1.7,0,0,0-1.46-.83H5.6a1.7,1.7,0,0,0-1.7,1.7v9.34H1.17A1.17,1.17,0,0,0,0,13.95V24.77a1.17,1.17,0,0,0,1.17,1.17H2.4a.29.29,0,0,0,.29-.29,4,4,0,1,1,8.08,0,.29.29,0,0,0,.08.2.29.29,0,0,0,.2.08h3.24a.29.29,0,0,0,.29-.29,4,4,0,1,1,8.08,0,.29.29,0,0,0,.29.29h.88a1.52,1.52,0,0,0,1.52-1.52v-7.3A1.48,1.48,0,0,0,25.07,16.35Zm-9.63,0V14.75a.49.49,0,0,0-.49-.49H12.17V9.62a.49.49,0,0,0-.49-.49H10.12a.49.49,0,0,0-.49.49v6.72H7.3V5.13h7L21,16.33Z"/><path class="cls-1" d="M40.52,21.38a.52.52,0,0,1-.52.52h-7.5a.52.52,0,0,1-.52-.52v-7.5a.52.52,0,0,1,.52-.52H40a.52.52,0,0,1,.52.52Z"/></g></g></svg>