<svg xmlns="http://www.w3.org/2000/svg" viewBox="0 0 50.87 24.42"><defs><style>.cls-1{fill:#b9bdc1;}</style></defs><title>Ikona_samochód_szary</title><g id="Warstwa_2" data-name="Warstwa 2"><g id="Warstwa_1-2" data-name="Warstwa 1"><path class="cls-1" d="M38.59,14a5.19,5.19,0,1,1-5.19,5.18A5.17,5.17,0,0,1,38.59,14Zm0,6.75A1.56,1.56,0,1,0,37,19.22,1.57,1.57,0,0,0,38.59,20.79Z"/><path class="cls-1" d="M.86,15,1.7,8.09A2.55,2.55,0,0,1,4.35,5.86L6.21,6,12,.78A3,3,0,0,1,14,0H25.73a11.48,11.48,0,0,1,7.22,2.54L39.48,7.8,48.28,10a2.55,2.55,0,0,1,1.91,2.46V15a.68.68,0,0,1,.68.68V19a.86.86,0,0,1-.86.86H45c0-.21.06-.42.06-.65a6.52,6.52,0,0,0-13,0c0,.23,0,.44.06.65H18.4c0-.21.06-.42.06-.65a6.52,6.52,0,0,0-13,0c0,.23,0,.44.06.65H.86A.85.85,0,0,1,0,19V15.84A.84.84,0,0,1,.86,15ZM18.24,6.5l16.36.83L31.46,4.82a9.52,9.52,0,0,0-6-2.12H18.24Zm-2.72-.15V2.7H14.47a1.52,1.52,0,0,0-1,.39l-3.33,3Z"/><path class="cls-1" d="M11.94,14a5.19,5.19,0,1,1-5.19,5.18A5.17,5.17,0,0,1,11.94,14Zm0,6.75a1.56,1.56,0,1,0-1.57-1.57A1.56,1.56,0,0,0,11.94,20.79Z"/></g></g></svg>