<svg xmlns="http://www.w3.org/2000/svg" viewBox="0 0 36.86 31.95"><defs><style>.cls-1{fill:#1a80e0;}</style></defs><title>Ikona_Rower_blue</title><g id="Warstwa_2" data-name="Warstwa 2"><g id="Warstwa_1-2" data-name="Warstwa 1"><g id="directions-bike"><path class="cls-1" d="M24.57,5.53a2.76,2.76,0,1,0-2.76-2.76A2.75,2.75,0,0,0,24.57,5.53Zm4.61,11.06a7.68,7.68,0,1,0,7.68,7.68A7.6,7.6,0,0,0,29.18,16.59Zm0,13.05a5.38,5.38,0,1,1,5.38-5.38A5.44,5.44,0,0,1,29.18,29.64ZM22.73,13.52h6.45V10.75H24.27L21.35,5.68a2.7,2.7,0,0,0-4.15-.46L11.52,10.9a2.54,2.54,0,0,0-.77,1.84A2.71,2.71,0,0,0,12,15.05l5.22,3.07V25.8H20v-10l-3.38-2.61,3.53-3.53ZM7.68,16.59a7.68,7.68,0,0,0,0,15.36,7.68,7.68,0,0,0,0-15.36Zm0,13.05a5.38,5.38,0,1,1,0-10.75,5.38,5.38,0,1,1,0,10.75Z"/></g></g></g></svg>