<svg xmlns="http://www.w3.org/2000/svg" viewBox="0 0 33.25 27.09"><defs><style>.cls-1{fill:#1a80e0;}</style></defs><title>Ikona_Ciężarówka_blue</title><g id="Warstwa_2" data-name="Warstwa 2"><g id="Warstwa_1-2" data-name="Warstwa 1"><path class="cls-1" d="M.37.37A1.18,1.18,0,0,1,1.23,0h19.7a1.18,1.18,0,0,1,.87.37,1.18,1.18,0,0,1,.37.87V4.93h3.08a3.34,3.34,0,0,1,2.1.87L31.15,9.6a2.62,2.62,0,0,1,.43.58,3.5,3.5,0,0,1,.27.59,3.19,3.19,0,0,1,.12.71q0,.45,0,.66t0,.73q0,.52,0,.67V19.7a1.25,1.25,0,0,1,1.23,1.23,1.55,1.55,0,0,1-.08.51.73.73,0,0,1-.26.36l-.32.22a1.06,1.06,0,0,1-.45.12l-.43,0H29.55a4.93,4.93,0,0,1-4.93,4.93,4.93,4.93,0,0,1-4.93-4.93H12.31a4.75,4.75,0,0,1-1.44,3.48,4.75,4.75,0,0,1-3.48,1.44,4.75,4.75,0,0,1-3.48-1.44,4.75,4.75,0,0,1-1.44-3.48H1.54l-.43,0A1.06,1.06,0,0,1,.65,22L.34,21.8a.73.73,0,0,1-.26-.36A1.53,1.53,0,0,1,0,20.93V1.23A1.18,1.18,0,0,1,.37.37ZM22.9,23.9a2.42,2.42,0,1,0-.73-1.73A2.37,2.37,0,0,0,22.9,23.9Zm-.73-11.58h7.39v-.58a.58.58,0,0,0-.17-.42L25.63,7.56a.58.58,0,0,0-.42-.17h-3ZM5.66,23.9a2.42,2.42,0,0,0,3.46,0,2.42,2.42,0,0,0,0-3.46,2.42,2.42,0,0,0-3.46,0,2.42,2.42,0,0,0,0,3.46Z"/></g></g></svg>