<svg xmlns="http://www.w3.org/2000/svg" viewBox="0 0 37.61 24.56"><defs><style>.cls-1{fill:#1a80e0;}</style></defs><title>Ikona_Ciężki_Sprzęt_blue</title><g id="Warstwa_2" data-name="Warstwa 2"><g id="Warstwa_1-2" data-name="Warstwa 1"><g id="iconos"><path class="cls-1" d="M8.27,15.15a4.7,4.7,0,1,0,4.7,4.7A4.7,4.7,0,0,0,8.27,15.15Zm0,6.25a1.55,1.55,0,1,1,1.55-1.55A1.55,1.55,0,0,1,8.27,21.41Z"/><path class="cls-1" d="M34.08,4H24.18v9.59a9,9,0,0,1,1.55-.07,5.62,5.62,0,0,1,5.05,2.51,2,2,0,0,1,1.45-.63h4.7V8.4Zm.84,7.39H29.55V6h4l1.34,2.14Z"/><path class="cls-1" d="M2,10.75s11.08,2.06,12.55,7.39H19.6s.63-3.36,3.23-4.28V2.69H34.65L36.6,0H21.49L19.65,4H0V6.72H2Z"/><path class="cls-1" d="M32.24,16.79a.74.74,0,0,0-.67.67v1.34a.67.67,0,0,0,.67.67h4.7a.67.67,0,0,0,.67-.67V17.46a.67.67,0,0,0-.67-.67Z"/><path class="cls-1" d="M30.42,19.67a4.6,4.6,0,0,0-.2-1.21,4.71,4.71,0,1,0,.21,1.39C30.43,19.79,30.43,19.73,30.42,19.67Zm-4.69,1.74a1.55,1.55,0,1,1,1.55-1.55A1.55,1.55,0,0,1,25.73,21.41Z"/></g></g></g></svg>