<svg xmlns="http://www.w3.org/2000/svg" viewBox="0 0 40.13 1120.48"><defs><style>.cls-1{fill:#1a80e0;}</style></defs><title>Wszystkie odnośniki</title><g id="Warstwa_2" data-name="Warstwa 2"><g id="Warstwa_1-2" data-name="Warstwa 1"><polygon class="cls-1" points="1.13 1117 0.13 1117 0 0 1 0 1.01 58.5 1.01 59.5 1.13 1117"/><rect class="cls-1" x="0.13" y="58.5" width="0.88" height="1"/><path class="cls-1" d="M35.13,55a4,4,0,0,0-4,3.5H1v1H31.16a4,4,0,1,0,4-4.5Zm0,7a3,3,0,1,1,3-3A3,3,0,0,1,35.13,62Z"/><path class="cls-1" d="M35.13,119a4,4,0,0,0-4,3.5H.13v1h31a4,4,0,1,0,4-4.5Zm0,7a3,3,0,1,1,3-3A3,3,0,0,1,35.13,126Z"/><path class="cls-1" d="M35.13,183a4,4,0,0,0-4,3.5H.13v1h31a4,4,0,1,0,4-4.5Zm0,7a3,3,0,1,1,3-3A3,3,0,0,1,35.13,190Z"/><path class="cls-1" d="M35.13,247a4,4,0,0,0-4,3.5H.13v1h31a4,4,0,1,0,4-4.5Zm0,7a3,3,0,1,1,3-3A3,3,0,0,1,35.13,254Z"/><path class="cls-1" d="M36.13,311a4,4,0,0,0-4,3.5h-31v1h31a4,4,0,1,0,4-4.5Zm0,7a3,3,0,1,1,3-3A3,3,0,0,1,36.13,318Z"/><path class="cls-1" d="M36.13,409a4,4,0,0,0-4,3.5h-31v1h31a4,4,0,1,0,4-4.5Zm0,7a3,3,0,1,1,3-3A3,3,0,0,1,36.13,416Z"/><path class="cls-1" d="M36.13,630a4,4,0,0,0-4,3.5h-31v1h31a4,4,0,1,0,4-4.5Zm0,7a3,3,0,1,1,3-3A3,3,0,0,1,36.13,637Z"/><path class="cls-1" d="M36.13,727a4,4,0,0,0-4,3.5h-31v1h31a4,4,0,1,0,4-4.5Zm0,7a3,3,0,1,1,3-3A3,3,0,0,1,36.13,734Z"/><path class="cls-1" d="M35.13,790a4,4,0,0,0-4,3.5H.13v1h31a4,4,0,1,0,4-4.5Zm0,7a3,3,0,1,1,3-3A3,3,0,0,1,35.13,797Z"/><path class="cls-1" d="M35.13,854a4,4,0,0,0-4,3.5H.13v1h31a4,4,0,1,0,4-4.5Zm0,7a3,3,0,1,1,3-3A3,3,0,0,1,35.13,861Z"/><path class="cls-1" d="M35.13,918a4,4,0,0,0-4,3.5H.13v1h31a4,4,0,1,0,4-4.5Zm0,7a3,3,0,1,1,3-3A3,3,0,0,1,35.13,925Z"/><path class="cls-1" d="M35.13,982a4,4,0,0,0-4,3.5H.13v1h31a4,4,0,1,0,4-4.5Zm0,7a3,3,0,1,1,3-3A3,3,0,0,1,35.13,989Z"/><path class="cls-1" d="M36.13,1046a4,4,0,0,0-4,3.5h-31v1h31a4,4,0,1,0,4-4.5Zm0,7a3,3,0,1,1,3-3A3,3,0,0,1,36.13,1053Z"/><path class="cls-1" d="M36.13,1112.48a4,4,0,0,0-4,3.5h-31v1h31a4,4,0,1,0,4-4.5Zm0,7a3,3,0,1,1,3-3A3,3,0,0,1,36.13,1119.48Z"/></g></g></svg>