<svg xmlns="http://www.w3.org/2000/svg" viewBox="0 0 94.19 93.23"><defs><style>.cls-1{fill:#fff;}</style></defs><title>Dział_Techniczny_Icon</title><g id="Warstwa_2" data-name="Warstwa 2"><g id="Warstwa_1-2" data-name="Warstwa 1"><path class="cls-1" d="M6.18,34A22.93,22.93,0,0,0,8.23,38.9L5.76,42A2.56,2.56,0,0,0,6,45.42l4.26,4.26a2.55,2.55,0,0,0,3.4.19l3.1-2.46a22.54,22.54,0,0,0,5.06,2.14l.46,4a2.56,2.56,0,0,0,2.54,2.26h6a2.56,2.56,0,0,0,2.54-2.26l.44-3.85a22.8,22.8,0,0,0,5.43-2.19l3,2.37a2.56,2.56,0,0,0,3.4-.19l4.26-4.26a2.55,2.55,0,0,0,.19-3.4l-2.33-3A22.27,22.27,0,0,0,50,33.74l3.6-.41a2.56,2.56,0,0,0,2.26-2.54v-6a2.56,2.56,0,0,0-2.26-2.54L50,21.81a22.41,22.41,0,0,0-2.14-5.27l2.18-2.76a2.56,2.56,0,0,0-.19-3.4L45.61,6.12a2.55,2.55,0,0,0-3.4-.19L39.54,8.05A22.49,22.49,0,0,0,34,5.73l-.4-3.47A2.56,2.56,0,0,0,31.05,0H25a2.56,2.56,0,0,0-2.54,2.26l-.4,3.47a22.39,22.39,0,0,0-5.69,2.4l-2.78-2.2a2.56,2.56,0,0,0-3.4.19L6,10.39a2.55,2.55,0,0,0-.19,3.4l2.32,2.94A22,22,0,0,0,6,22l-3.72.42A2.56,2.56,0,0,0,0,25v6a2.56,2.56,0,0,0,2.26,2.54ZM28,17.71a10,10,0,1,1-10,10A10,10,0,0,1,28,17.71Z"/><path class="cls-1" d="M87.67,35.52l-3.18-2.69a2.52,2.52,0,0,0-3.35.09l-1.76,1.65a18.17,18.17,0,0,0-4.69-1.52l-.49-2.43a2.54,2.54,0,0,0-2.69-2L67.36,29A2.53,2.53,0,0,0,65,31.39L65,33.86a18.22,18.22,0,0,0-4.48,2.35l-2.1-1.39a2.52,2.52,0,0,0-3.32.47l-2.69,3.2a2.52,2.52,0,0,0,.09,3.35l1.84,2a18.83,18.83,0,0,0-1.35,4.49l-2.63.54a2.54,2.54,0,0,0-2,2.69l.35,4.15A2.53,2.53,0,0,0,51.09,58l2.84.09a18.56,18.56,0,0,0,2,3.84l-1.59,2.39a2.52,2.52,0,0,0,.47,3.32L58,70.33a2.52,2.52,0,0,0,3.35-.09l2.08-2a18.24,18.24,0,0,0,4.27,1.39l.58,2.85a2.54,2.54,0,0,0,2.69,2l4.15-.35a2.53,2.53,0,0,0,2.31-2.44L77.54,69a18.68,18.68,0,0,0,4.27-2.16l2.29,1.52a2.52,2.52,0,0,0,3.32-.47l2.69-3.18A2.52,2.52,0,0,0,90,61.31l-1.85-2a18.2,18.2,0,0,0,1.46-4.51l2.53-.52a2.54,2.54,0,0,0,2-2.69l-.35-4.15a2.53,2.53,0,0,0-2.44-2.31l-2.54-.08a18.35,18.35,0,0,0-2.11-4.16l1.38-2.08A2.51,2.51,0,0,0,87.67,35.52ZM72,59.52a8.16,8.16,0,1,1,7.45-8.82A8.16,8.16,0,0,1,72,59.52Z"/><path class="cls-1" d="M20.71,70.7a2.52,2.52,0,0,0-2.26,2.49l0,2.56a2.52,2.52,0,0,0,2.2,2.54l1.88.24a14.58,14.58,0,0,0,1.33,3.26l-1.21,1.5a2.52,2.52,0,0,0,.15,3.35l1.79,1.83a2.52,2.52,0,0,0,3.35.23l1.51-1.16A14.76,14.76,0,0,0,32.78,89l.2,1.94a2.52,2.52,0,0,0,2.49,2.26l2.56,0A2.52,2.52,0,0,0,40.56,91l.23-1.84a15.18,15.18,0,0,0,3.64-1.41l1.41,1.14a2.52,2.52,0,0,0,3.35-.15L51,87a2.52,2.52,0,0,0,.23-3.35l-1.08-1.4a14.65,14.65,0,0,0,1.54-3.54l1.68-.17A2.52,2.52,0,0,0,55.65,76l0-2.56a2.52,2.52,0,0,0-2.2-2.54l-1.64-.21a15.22,15.22,0,0,0-1.38-3.54l1-1.25a2.52,2.52,0,0,0-.15-3.35l-1.79-1.83a2.52,2.52,0,0,0-3.35-.23L45,61.45a14.86,14.86,0,0,0-3.68-1.6l-.16-1.59A2.52,2.52,0,0,0,38.64,56l-2.56,0a2.52,2.52,0,0,0-2.54,2.2l-.2,1.58a15.26,15.26,0,0,0-3.81,1.56l-1.26-1a2.52,2.52,0,0,0-3.35.15l-1.84,1.8a2.52,2.52,0,0,0-.23,3.35L23.93,67a14.79,14.79,0,0,0-1.44,3.54Zm16.5-2.89a6.65,6.65,0,1,1-6.73,6.57A6.65,6.65,0,0,1,37.21,67.81Z"/></g></g></svg>