<svg xmlns="http://www.w3.org/2000/svg" viewBox="0 0 91.24 100.65"><defs><style>.cls-1{fill:#fff;}</style></defs><title>Dział_Handlowy_Icon</title><g id="Warstwa_2" data-name="Warstwa 2"><g id="Warstwa_1-2" data-name="Warstwa 1"><path class="cls-1" d="M91.24,87.26v13.39H0V87.26C0,80.94,5.45,73.15,12.11,70l14.81-7L37.2,84.38l5.27-14.28a16.87,16.87,0,0,0,3.15.46,16.9,16.9,0,0,0,3.15-.46l5,13.57,10.08-21L79.14,70C85.79,73.15,91.24,80.93,91.24,87.26ZM13.46,40.34V30.67a4.63,4.63,0,0,1,2.14-3.9,30.23,30.23,0,0,1,60.06,0,4.63,4.63,0,0,1,2.14,3.9v9.67a4.65,4.65,0,1,1-9.3,0v-2C66,51,56.72,62.72,45.63,62.72S25.28,51,22.76,38.31v2a4.64,4.64,0,0,1-3.27,4.42A27.13,27.13,0,0,0,31.11,60.07a4.74,4.74,0,0,1,3.65.39c2.06,1.07,3.11,3.15,2.33,4.64s-3.07,1.82-5.14.75a4.5,4.5,0,0,1-2.57-3.35,30.13,30.13,0,0,1-13-17.84A4.64,4.64,0,0,1,13.46,40.34Zm5.31-14.66a1.35,1.35,0,0,1,.41.06,1.48,1.48,0,0,1,.75.65,4.63,4.63,0,0,1,2.31,2.18C23.6,15.72,33.54,8.92,45.62,8.92s22,6.8,23.39,19.65a4.61,4.61,0,0,1,3.52-2.49,27.23,27.23,0,0,0-53.77-.4Z"/></g></g></svg>