<svg xmlns="http://www.w3.org/2000/svg" viewBox="0 0 95.09 89.15"><defs><style>.cls-1{fill:#fff;}</style></defs><title>Fax_Icon</title><g id="Warstwa_2" data-name="Warstwa 2"><g id="Warstwa_1-2" data-name="Warstwa 1"><path class="cls-1" d="M23.77,71.32V89.15H71.32V59.43H23.77Zm5.94-5.94H65.37v5.94H29.72Zm0,11.89H65.37V83.2H29.72Z"/><polygon class="cls-1" points="71.32 17.83 71.32 0 23.77 0 23.77 17.83 23.77 29.71 71.32 29.71 71.32 17.83"/><path class="cls-1" d="M83.2,17.83H77.26V35.66H17.83V17.83H11.89C5.94,17.83,0,23.77,0,29.72V59.43c0,5.94,5.94,11.89,11.89,11.89h5.94V53.49H77.26V71.32H83.2c5.94,0,11.89-5.94,11.89-11.89V29.72C95.09,23.77,89.15,17.83,83.2,17.83Z"/></g></g></svg>