<svg xmlns="http://www.w3.org/2000/svg" viewBox="0 0 827.96 202.71"><defs><style>.cls-1{fill:#fff;}.cls-2{fill:#004c93;}.cls-3{fill:none;stroke:#13293d;stroke-miterlimit:10;}.cls-4{fill:#13293d;}.cls-5{fill:#1a80e0;}</style></defs><title>Tabela_Wyppełniona</title><g id="Warstwa_2" data-name="Warstwa 2"><g id="Warstwa_1-2" data-name="Warstwa 1"><rect class="cls-1" x="17.48" width="793" height="202.71"/><rect class="cls-2" x="17.48" width="198.25" height="70.1"/><path class="cls-1" d="M89.83,36.28v5.36H86.19V26h6.35A6.49,6.49,0,0,1,97,27.43a4.7,4.7,0,0,1,1.63,3.72A4.68,4.68,0,0,1,97,34.87a6.52,6.52,0,0,1-4.42,1.41Zm0-2.79h2.71a2.37,2.37,0,0,0,1.8-.65A2.33,2.33,0,0,0,95,31.17a2.42,2.42,0,0,0-.62-1.71,2.34,2.34,0,0,0-1.8-.67H89.83Z"/><path class="cls-1" d="M107,41.63a4.56,4.56,0,0,1-.27-.62,6.46,6.46,0,0,1-.21-.71,4,4,0,0,1-1.25,1.14,3.48,3.48,0,0,1-1.77.42,3.81,3.81,0,0,1-2.69-1,3.3,3.3,0,0,1-1-2.54,3.11,3.11,0,0,1,1.29-2.67,6.71,6.71,0,0,1,3.94-.94h1.32v-.83a1.68,1.68,0,0,0-.35-1.14,1.37,1.37,0,0,0-1.08-.4,1.29,1.29,0,0,0-.93.29,1.23,1.23,0,0,0-.31.92h-3.51l0-.06a3,3,0,0,1,1.32-2.66,5.93,5.93,0,0,1,3.7-1.07,5.39,5.39,0,0,1,3.49,1.07A3.71,3.71,0,0,1,110,34v4.38a9,9,0,0,0,.16,1.73,8.86,8.86,0,0,0,.47,1.58Zm-2.4-2.35a2.26,2.26,0,0,0,1-.21,2.06,2.06,0,0,0,.73-.56V36.69H105a1.64,1.64,0,0,0-1.25.42,1.5,1.5,0,0,0-.39,1.06,1,1,0,0,0,.34.8A1.26,1.26,0,0,0,104.6,39.28Z"/><path class="cls-1" d="M115.78,41.64h-3.64V24.89h3.64Z"/><path class="cls-1" d="M123.31,41.87a5.38,5.38,0,0,1-4.1-1.61,5.63,5.63,0,0,1-1.53-4v-.41a6.58,6.58,0,0,1,1.39-4.33,5.56,5.56,0,0,1,7.69-.25,5.36,5.36,0,0,1,1.34,3.85V37h-6.64l0,.06a2.37,2.37,0,0,0,.73,1.47,2.29,2.29,0,0,0,1.63.58,6.76,6.76,0,0,0,1.65-.16,12,12,0,0,0,1.56-.56l.86,2.21a6.58,6.58,0,0,1-2,.93A8.8,8.8,0,0,1,123.31,41.87Zm-.26-9.27a1.34,1.34,0,0,0-1.18.56,3.06,3.06,0,0,0-.48,1.49l0,.05h3.13v-.28a2.18,2.18,0,0,0-.37-1.35A1.35,1.35,0,0,0,123.05,32.6Z"/><path class="cls-1" d="M133.94,27.13V30h2v2.51h-2v5.33a1.31,1.31,0,0,0,.25.9.89.89,0,0,0,.68.27l.54,0,.51-.09.26,2.69a10.74,10.74,0,0,1-1.08.2,9.59,9.59,0,0,1-1.14.06,3.61,3.61,0,0,1-2.72-1,4.23,4.23,0,0,1-.92-3V32.53h-1.63V30h1.63V27.13Z"/><path class="cls-1" d="M144.29,41.63A4.56,4.56,0,0,1,144,41a6.46,6.46,0,0,1-.21-.71,4,4,0,0,1-1.25,1.14,3.48,3.48,0,0,1-1.77.42,3.81,3.81,0,0,1-2.69-1,3.3,3.3,0,0,1-1-2.54,3.11,3.11,0,0,1,1.29-2.67,6.71,6.71,0,0,1,3.94-.94h1.32v-.83a1.68,1.68,0,0,0-.35-1.14,1.37,1.37,0,0,0-1.08-.4,1.29,1.29,0,0,0-.93.29,1.23,1.23,0,0,0-.31.92h-3.51l0-.06a3,3,0,0,1,1.32-2.66,5.93,5.93,0,0,1,3.7-1.07,5.39,5.39,0,0,1,3.49,1.07A3.71,3.71,0,0,1,147.26,34v4.38a9,9,0,0,0,.16,1.73,8.86,8.86,0,0,0,.47,1.58Zm-2.4-2.35a2.26,2.26,0,0,0,1-.21,2.06,2.06,0,0,0,.73-.56V36.69h-1.29a1.64,1.64,0,0,0-1.25.42,1.5,1.5,0,0,0-.39,1.06,1,1,0,0,0,.34.8A1.26,1.26,0,0,0,141.9,39.28Z"/><rect class="cls-2" x="413.98" width="198.25" height="70.1"/><rect class="cls-3" x="17.48" y="70.1" width="198.25" height="66.31"/><rect class="cls-3" x="215.73" y="70.1" width="198.25" height="66.31"/><rect class="cls-3" x="413.98" y="70.1" width="198.25" height="66.31"/><rect class="cls-3" x="612.23" y="70.1" width="198.25" height="66.31"/><rect class="cls-2" x="17.48" y="136.4" width="198.25" height="66.31"/><rect class="cls-2" x="413.98" y="136.4" width="198.25" height="66.31"/><path class="cls-4" d="M240.42,41.64V26h5.65a6.38,6.38,0,0,1,4.62,1.8,6.14,6.14,0,0,1,1.86,4.61v2.81a6.14,6.14,0,0,1-1.86,4.62,6.39,6.39,0,0,1-4.62,1.79Zm3.64-12.85V38.85h1.76a2.77,2.77,0,0,0,2.27-1,4,4,0,0,0,.82-2.63V32.4a4,4,0,0,0-.82-2.61,2.78,2.78,0,0,0-2.27-1Z"/><path class="cls-4" d="M258.63,31.71l1.46-.45v2.23l-1.46.45v7.7H255V35.08l-1.37.42V33.27l1.38-.42v-8h3.64Z"/><path class="cls-4" d="M268.14,40.27a3.8,3.8,0,0,1-1.37,1.19,4,4,0,0,1-1.83.41,3.58,3.58,0,0,1-2.83-1.16,5.33,5.33,0,0,1-1-3.6V30h3.62v7.11a2.39,2.39,0,0,0,.37,1.46,1.26,1.26,0,0,0,1.06.48,3,3,0,0,0,1-.16,2,2,0,0,0,.75-.48V30h3.63V41.64h-3.17Z"/><path class="cls-4" d="M273,35.86a7.41,7.41,0,0,1,1.18-4.38,3.86,3.86,0,0,1,3.34-1.67,3,3,0,0,1,1.62.44,3.81,3.81,0,0,1,1.2,1.24l.25-1.46h3.18V41.19a4.73,4.73,0,0,1-1.6,3.74,6.29,6.29,0,0,1-4.31,1.41,7.78,7.78,0,0,1-1.89-.25,10.21,10.21,0,0,1-1.88-.67l.59-2.69a8.9,8.9,0,0,0,1.51.51,7.36,7.36,0,0,0,1.64.17,2.29,2.29,0,0,0,1.71-.6,2.25,2.25,0,0,0,.59-1.64v-.59a3.37,3.37,0,0,1-1.15,1,3.29,3.29,0,0,1-1.49.33,3.89,3.89,0,0,1-3.32-1.59,6.89,6.89,0,0,1-1.18-4.2Zm3.62.22a4.82,4.82,0,0,0,.41,2.21,1.44,1.44,0,0,0,1.39.79,2.56,2.56,0,0,0,1-.18,1.7,1.7,0,0,0,.7-.56V33.46a1.87,1.87,0,0,0-.69-.63,2.11,2.11,0,0,0-1-.23,1.45,1.45,0,0,0-1.4.89,5.49,5.49,0,0,0-.43,2.36Z"/><path class="cls-4" d="M285.41,35.73a6.14,6.14,0,0,1,1.48-4.27,6,6,0,0,1,8.28,0,6.14,6.14,0,0,1,1.48,4.27V36a6.14,6.14,0,0,1-1.48,4.28,6,6,0,0,1-8.28,0A6.14,6.14,0,0,1,285.41,36ZM289,36a4.81,4.81,0,0,0,.46,2.29,1.62,1.62,0,0,0,1.55.83,1.61,1.61,0,0,0,1.53-.84A4.77,4.77,0,0,0,293,36v-.22a4.79,4.79,0,0,0-.46-2.27A1.62,1.62,0,0,0,291,32.6a1.6,1.6,0,0,0-1.53.86,4.85,4.85,0,0,0-.46,2.27Z"/><path class="cls-4" d="M304.32,38.38a1,1,0,0,0-.49-.77,5.29,5.29,0,0,0-1.78-.61A7,7,0,0,1,299,35.77a2.79,2.79,0,0,1-1-2.29,3.27,3.27,0,0,1,1.29-2.6,5.31,5.31,0,0,1,3.49-1.07,6,6,0,0,1,3.7,1,3,3,0,0,1,1.31,2.68l0,.06H304.2a1.43,1.43,0,0,0-.35-1,1.53,1.53,0,0,0-1.12-.36,1.47,1.47,0,0,0-1,.31,1,1,0,0,0-.39.79.94.94,0,0,0,.45.78,5,5,0,0,0,1.8.58,7.26,7.26,0,0,1,3.15,1.25,2.86,2.86,0,0,1,1,2.36,3.08,3.08,0,0,1-1.39,2.58,6.1,6.1,0,0,1-3.68,1,5.52,5.52,0,0,1-3.75-1.2A3.32,3.32,0,0,1,297.67,38l0-.06H301a1.46,1.46,0,0,0,.5,1.19,2.2,2.2,0,0,0,1.36.37,1.81,1.81,0,0,0,1.11-.28A1,1,0,0,0,304.32,38.38ZM303,25.48h3.74l0,.06-3,2.79h-3Z"/><path class="cls-4" d="M314.48,39.08a1.38,1.38,0,0,0,1.08-.4,1.71,1.71,0,0,0,.35-1.17h3.32l0,.06a3.82,3.82,0,0,1-1.32,3.1,5,5,0,0,1-3.46,1.2,5.12,5.12,0,0,1-4.08-1.64A6.24,6.24,0,0,1,309,36v-.25a6.27,6.27,0,0,1,1.43-4.26,5.07,5.07,0,0,1,4-1.65A5,5,0,0,1,318,31a4.25,4.25,0,0,1,1.28,3.36l0,.06h-3.32a2.3,2.3,0,0,0-.37-1.35,1.26,1.26,0,0,0-1.11-.52,1.47,1.47,0,0,0-1.44.85,5.21,5.21,0,0,0-.41,2.27V36a5.18,5.18,0,0,0,.41,2.29A1.51,1.51,0,0,0,314.48,39.08Zm0-13.6h3.74l0,.06-3,2.79h-3Z"/><path class="cls-4" d="M332.16,31.28,334.74,26h4.19l-4.48,7.76,4.82,7.88h-4.4l-2.66-5.38-2.66,5.38h-4.19l4.6-7.88L325.47,26h4.16Z"/><path class="cls-4" d="M346,35.28a14.58,14.58,0,0,1,1.59-7.08,7.63,7.63,0,0,1,3.74-3.73h.06l.66,1.71a7.21,7.21,0,0,0-2.27,3.27,16,16,0,0,0-.89,5.82v.34a16,16,0,0,0,.89,5.83,7.21,7.21,0,0,0,2.27,3.26l-.66,1.71h-.06a7.64,7.64,0,0,1-3.74-3.73A14.58,14.58,0,0,1,346,35.59Z"/><path class="cls-4" d="M358.52,39.08a1.38,1.38,0,0,0,1.08-.4,1.71,1.71,0,0,0,.35-1.17h3.32l0,.06a3.82,3.82,0,0,1-1.32,3.1,5,5,0,0,1-3.46,1.2,5.12,5.12,0,0,1-4.08-1.64A6.24,6.24,0,0,1,353,36v-.25a6.27,6.27,0,0,1,1.43-4.26,5.07,5.07,0,0,1,4-1.65A5,5,0,0,1,362,31a4.25,4.25,0,0,1,1.28,3.36l0,.06H360a2.3,2.3,0,0,0-.37-1.35,1.26,1.26,0,0,0-1.11-.52,1.47,1.47,0,0,0-1.44.85,5.21,5.21,0,0,0-.41,2.27V36a5.18,5.18,0,0,0,.41,2.29A1.51,1.51,0,0,0,358.52,39.08Z"/><path class="cls-4" d="M368.21,30l.13,1.54a3.84,3.84,0,0,1,1.38-1.29,3.9,3.9,0,0,1,1.91-.46,3.56,3.56,0,0,1,1.87.47,2.91,2.91,0,0,1,1.18,1.44,3.9,3.9,0,0,1,1.38-1.41,3.79,3.79,0,0,1,2-.5A3.29,3.29,0,0,1,380.7,31a5.54,5.54,0,0,1,1,3.59v7.08H378V34.57a2.5,2.5,0,0,0-.35-1.55,1.28,1.28,0,0,0-1-.42,2.19,2.19,0,0,0-.93.19,2,2,0,0,0-.68.52c0,.12,0,.23,0,.32s0,.18,0,.26v7.76h-3.63V34.57a2.53,2.53,0,0,0-.34-1.55A1.3,1.3,0,0,0,370,32.6a2.11,2.11,0,0,0-.9.19,2,2,0,0,0-.68.52v8.34H364.8V30Z"/><path class="cls-4" d="M389.48,35.59a14,14,0,0,1-1.69,7,7.9,7.9,0,0,1-3.89,3.81h-.06l-.66-1.71a7.45,7.45,0,0,0,2.26-3.27,15.83,15.83,0,0,0,.9-5.82v-.34a15.88,15.88,0,0,0-.9-5.82,7.37,7.37,0,0,0-2.26-3.27l.66-1.71h.06a7.89,7.89,0,0,1,3.89,3.81,14,14,0,0,1,1.69,7Z"/><path class="cls-1" d="M435.31,37.5a1.56,1.56,0,0,0-.55-1.28,7,7,0,0,0-2-1,15.14,15.14,0,0,1-4.39-2A3.62,3.62,0,0,1,427,30.17a3.74,3.74,0,0,1,1.7-3.18A7.28,7.28,0,0,1,433,25.78a6.58,6.58,0,0,1,4.26,1.34,4.08,4.08,0,0,1,1.61,3.44l0,.06h-3.52a2,2,0,0,0-.63-1.52,2.48,2.48,0,0,0-1.75-.59,2.74,2.74,0,0,0-1.72.48,1.46,1.46,0,0,0-.62,1.19,1.26,1.26,0,0,0,.63,1.1,12.65,12.65,0,0,0,2.36,1,11,11,0,0,1,4,2,4,4,0,0,1,1.35,3.19,3.77,3.77,0,0,1-1.61,3.23,7.09,7.09,0,0,1-4.26,1.17,7.93,7.93,0,0,1-4.61-1.34,4.27,4.27,0,0,1-1.89-3.85l0-.06h3.53a2.33,2.33,0,0,0,.73,1.93,3.52,3.52,0,0,0,2.21.58,2.62,2.62,0,0,0,1.68-.45A1.45,1.45,0,0,0,435.31,37.5Z"/><path class="cls-1" d="M445,38.85h5.29v2.79h-9.87v-2l5.17-6.81h-4.94V30h9.54v2Z"/><path class="cls-1" d="M457.15,41.87a5.38,5.38,0,0,1-4.1-1.61,5.63,5.63,0,0,1-1.53-4v-.41a6.58,6.58,0,0,1,1.39-4.33,5.56,5.56,0,0,1,7.69-.25,5.36,5.36,0,0,1,1.34,3.85V37H455.3l0,.06A2.37,2.37,0,0,0,456,38.5a2.29,2.29,0,0,0,1.63.58,6.76,6.76,0,0,0,1.65-.16,12,12,0,0,0,1.56-.56l.86,2.21a6.58,6.58,0,0,1-2,.93A8.8,8.8,0,0,1,457.15,41.87Zm-.26-9.27a1.34,1.34,0,0,0-1.18.56,3.06,3.06,0,0,0-.48,1.49l0,.05h3.13v-.28a2.18,2.18,0,0,0-.37-1.35A1.35,1.35,0,0,0,456.89,32.6Z"/><path class="cls-1" d="M470,33.22h-1.32a2.18,2.18,0,0,0-1,.21,1.34,1.34,0,0,0-.59.6v7.63h-3.63V30h3.42l.13,1.71a3.49,3.49,0,0,1,1-1.42,2.12,2.12,0,0,1,1.41-.51,3.9,3.9,0,0,1,.53,0l.47.09Z"/><path class="cls-1" d="M470.91,35.73a6.14,6.14,0,0,1,1.48-4.27,6,6,0,0,1,8.28,0,6.14,6.14,0,0,1,1.48,4.27V36a6.14,6.14,0,0,1-1.48,4.28,6,6,0,0,1-8.28,0A6.14,6.14,0,0,1,470.91,36Zm3.63.22a4.81,4.81,0,0,0,.46,2.29,1.62,1.62,0,0,0,1.55.83,1.61,1.61,0,0,0,1.53-.84,4.77,4.77,0,0,0,.46-2.29v-.22a4.79,4.79,0,0,0-.46-2.27,1.62,1.62,0,0,0-1.55-.85,1.6,1.6,0,0,0-1.53.86,4.85,4.85,0,0,0-.46,2.27Z"/><path class="cls-1" d="M488,37h-.61v4.62h-3.63V24.89h3.63v9.4h.48L490.35,30h4.16l-3.61,5.25,4.18,6.37h-4.14Z"/><path class="cls-1" d="M495.29,35.73a6.14,6.14,0,0,1,1.48-4.27,6,6,0,0,1,8.28,0,6.14,6.14,0,0,1,1.48,4.27V36a6.14,6.14,0,0,1-1.48,4.28,6,6,0,0,1-8.28,0A6.14,6.14,0,0,1,495.29,36Zm3.63.22a4.81,4.81,0,0,0,.46,2.29,1.62,1.62,0,0,0,1.55.83,1.61,1.61,0,0,0,1.53-.84,4.77,4.77,0,0,0,.46-2.29v-.22a4.79,4.79,0,0,0-.46-2.27,1.62,1.62,0,0,0-1.55-.85,1.6,1.6,0,0,0-1.53.86,4.85,4.85,0,0,0-.46,2.27Z"/><path class="cls-1" d="M514.2,38.38a1,1,0,0,0-.49-.77,5.29,5.29,0,0,0-1.78-.61,7,7,0,0,1-3.06-1.23,2.79,2.79,0,0,1-1-2.29,3.27,3.27,0,0,1,1.29-2.6,5.31,5.31,0,0,1,3.49-1.07,6,6,0,0,1,3.7,1,3,3,0,0,1,1.31,2.68l0,.06h-3.52a1.43,1.43,0,0,0-.35-1,1.53,1.53,0,0,0-1.12-.36,1.47,1.47,0,0,0-1,.31,1,1,0,0,0-.39.79.94.94,0,0,0,.45.78,5,5,0,0,0,1.8.58,7.26,7.26,0,0,1,3.15,1.25,2.86,2.86,0,0,1,1,2.36,3.08,3.08,0,0,1-1.39,2.58,6.1,6.1,0,0,1-3.68,1,5.52,5.52,0,0,1-3.75-1.2A3.32,3.32,0,0,1,507.55,38l0-.06h3.29a1.46,1.46,0,0,0,.5,1.19,2.2,2.2,0,0,0,1.36.37,1.81,1.81,0,0,0,1.11-.28A1,1,0,0,0,514.2,38.38Zm-1.28-12.9h3.74l0,.06-3,2.79h-3Z"/><path class="cls-1" d="M524.36,39.08a1.38,1.38,0,0,0,1.08-.4,1.71,1.71,0,0,0,.35-1.17h3.32l0,.06a3.82,3.82,0,0,1-1.32,3.1,5,5,0,0,1-3.46,1.2,5.12,5.12,0,0,1-4.08-1.64A6.24,6.24,0,0,1,518.85,36v-.25a6.27,6.27,0,0,1,1.43-4.26,5.07,5.07,0,0,1,4-1.65A5,5,0,0,1,527.86,31a4.25,4.25,0,0,1,1.28,3.36l0,.06H525.8a2.3,2.3,0,0,0-.37-1.35,1.26,1.26,0,0,0-1.11-.52,1.47,1.47,0,0,0-1.44.85,5.21,5.21,0,0,0-.41,2.27V36a5.18,5.18,0,0,0,.41,2.29A1.51,1.51,0,0,0,524.36,39.08Zm0-13.6h3.74l0,.06-3,2.79h-3Z"/><path class="cls-1" d="M542.08,32.84h.06L545.26,26h3.94l-5.32,10.14v5.5h-3.62V36l-5.21-10H539Z"/><path class="cls-1" d="M555.92,35.28a14.58,14.58,0,0,1,1.59-7.08,7.63,7.63,0,0,1,3.74-3.73h.06l.66,1.71a7.21,7.21,0,0,0-2.27,3.27,16,16,0,0,0-.89,5.82v.34a16,16,0,0,0,.89,5.83A7.21,7.21,0,0,0,562,44.69l-.66,1.71h-.06a7.64,7.64,0,0,1-3.74-3.73,14.58,14.58,0,0,1-1.59-7.09Z"/><path class="cls-1" d="M568.44,39.08a1.38,1.38,0,0,0,1.08-.4,1.71,1.71,0,0,0,.35-1.17h3.32l0,.06a3.82,3.82,0,0,1-1.32,3.1,5,5,0,0,1-3.46,1.2,5.12,5.12,0,0,1-4.08-1.64A6.24,6.24,0,0,1,562.93,36v-.25a6.27,6.27,0,0,1,1.43-4.26,5.07,5.07,0,0,1,4-1.65A5,5,0,0,1,571.94,31a4.25,4.25,0,0,1,1.28,3.36l0,.06h-3.32a2.3,2.3,0,0,0-.37-1.35,1.26,1.26,0,0,0-1.11-.52,1.47,1.47,0,0,0-1.44.85,5.21,5.21,0,0,0-.41,2.27V36a5.18,5.18,0,0,0,.41,2.29A1.51,1.51,0,0,0,568.44,39.08Z"/><path class="cls-1" d="M578.13,30l.13,1.54a3.84,3.84,0,0,1,1.38-1.29,3.9,3.9,0,0,1,1.91-.46,3.56,3.56,0,0,1,1.87.47,2.91,2.91,0,0,1,1.18,1.44A3.9,3.9,0,0,1,586,30.31a3.79,3.79,0,0,1,2-.5A3.29,3.29,0,0,1,590.62,31a5.54,5.54,0,0,1,1,3.59v7.08h-3.64V34.57A2.5,2.5,0,0,0,587.6,33a1.28,1.28,0,0,0-1-.42,2.19,2.19,0,0,0-.93.19,2,2,0,0,0-.68.52c0,.12,0,.23,0,.32s0,.18,0,.26v7.76h-3.63V34.57A2.53,2.53,0,0,0,581,33a1.3,1.3,0,0,0-1.06-.42,2.11,2.11,0,0,0-.9.19,2,2,0,0,0-.68.52v8.34h-3.63V30Z"/><path class="cls-1" d="M599.4,35.59a14,14,0,0,1-1.69,7,7.9,7.9,0,0,1-3.89,3.81h-.06l-.66-1.71a7.45,7.45,0,0,0,2.26-3.27,15.83,15.83,0,0,0,.9-5.82v-.34a15.88,15.88,0,0,0-.9-5.82,7.37,7.37,0,0,0-2.26-3.27l.66-1.71h.06a7.89,7.89,0,0,1,3.89,3.81,14,14,0,0,1,1.69,7Z"/><path class="cls-4" d="M639.07,36.26h.06L641.19,26h3.51l-3.59,15.64h-3.42L635.06,32H635l-2.61,9.65H629L625.37,26h3.52l2.05,10.26H631L633.77,26h2.52Z"/><path class="cls-4" d="M650.34,36.52v.09h.06L652.34,30h3.87l-4.63,13.35a6.41,6.41,0,0,1-1.38,2.13,3.72,3.72,0,0,1-2.7.84,4.09,4.09,0,0,1-.77-.06l-.95-.22.44-2.58.22,0,.19,0a2.41,2.41,0,0,0,1.26-.25,1.51,1.51,0,0,0,.59-.76l.29-.76-4-11.75h3.86Z"/><path class="cls-4" d="M663.21,38.38a1,1,0,0,0-.49-.77,5.3,5.3,0,0,0-1.78-.61,7,7,0,0,1-3.06-1.23,2.79,2.79,0,0,1-1-2.29,3.27,3.27,0,0,1,1.29-2.6,5.31,5.31,0,0,1,3.49-1.07,6,6,0,0,1,3.7,1,3,3,0,0,1,1.31,2.68l0,.06h-3.52a1.42,1.42,0,0,0-.35-1,1.53,1.53,0,0,0-1.12-.36,1.47,1.47,0,0,0-1,.31,1,1,0,0,0-.39.79.94.94,0,0,0,.45.78,5,5,0,0,0,1.8.58,7.26,7.26,0,0,1,3.15,1.25,2.86,2.86,0,0,1,1,2.36,3.08,3.08,0,0,1-1.39,2.58,6.1,6.1,0,0,1-3.68,1,5.52,5.52,0,0,1-3.75-1.2A3.32,3.32,0,0,1,656.56,38l0-.06h3.29a1.46,1.46,0,0,0,.5,1.19,2.2,2.2,0,0,0,1.36.37,1.81,1.81,0,0,0,1.11-.28A1,1,0,0,0,663.21,38.38Z"/><path class="cls-4" d="M667.92,35.73a6.14,6.14,0,0,1,1.48-4.27,6,6,0,0,1,8.28,0,6.14,6.14,0,0,1,1.48,4.27V36a6.14,6.14,0,0,1-1.48,4.28,6,6,0,0,1-8.28,0A6.14,6.14,0,0,1,667.92,36Zm3.63.22a4.8,4.8,0,0,0,.46,2.29,1.62,1.62,0,0,0,1.55.83,1.61,1.61,0,0,0,1.53-.84,4.78,4.78,0,0,0,.46-2.29v-.22a4.8,4.8,0,0,0-.46-2.27,1.62,1.62,0,0,0-1.55-.85,1.6,1.6,0,0,0-1.53.86,4.84,4.84,0,0,0-.46,2.27Z"/><path class="cls-4" d="M685,37h-.61v4.62h-3.63V24.89h3.63v9.4h.48L687.37,30h4.16l-3.61,5.25,4.18,6.37H688Z"/><path class="cls-4" d="M692.31,35.73a6.14,6.14,0,0,1,1.48-4.27,6,6,0,0,1,8.28,0,6.14,6.14,0,0,1,1.48,4.27V36a6.14,6.14,0,0,1-1.48,4.28,6,6,0,0,1-8.28,0A6.14,6.14,0,0,1,692.31,36Zm3.63.22a4.8,4.8,0,0,0,.46,2.29,1.62,1.62,0,0,0,1.55.83,1.61,1.61,0,0,0,1.53-.84,4.78,4.78,0,0,0,.46-2.29v-.22a4.8,4.8,0,0,0-.46-2.27,1.62,1.62,0,0,0-1.55-.85,1.6,1.6,0,0,0-1.53.86,4.84,4.84,0,0,0-.46,2.27Z"/><path class="cls-4" d="M711.21,38.38a1,1,0,0,0-.49-.77,5.28,5.28,0,0,0-1.78-.61,7,7,0,0,1-3.06-1.23,2.79,2.79,0,0,1-1-2.29,3.27,3.27,0,0,1,1.29-2.6,5.31,5.31,0,0,1,3.49-1.07,6,6,0,0,1,3.7,1,3,3,0,0,1,1.31,2.68l0,.06H711.1a1.43,1.43,0,0,0-.35-1,1.52,1.52,0,0,0-1.12-.36,1.47,1.47,0,0,0-1,.31,1,1,0,0,0-.39.79.94.94,0,0,0,.45.78,5,5,0,0,0,1.8.58,7.26,7.26,0,0,1,3.15,1.25,2.86,2.86,0,0,1,1,2.36,3.08,3.08,0,0,1-1.39,2.58,6.09,6.09,0,0,1-3.68,1,5.52,5.52,0,0,1-3.76-1.2A3.31,3.31,0,0,1,704.57,38l0-.06h3.29a1.45,1.45,0,0,0,.5,1.19,2.2,2.2,0,0,0,1.36.37,1.81,1.81,0,0,0,1.11-.28A1,1,0,0,0,711.21,38.38Zm-1.28-12.9h3.74l0,.06-3,2.79h-3Z"/><path class="cls-4" d="M721.38,39.08a1.38,1.38,0,0,0,1.09-.4,1.7,1.7,0,0,0,.35-1.17h3.32l0,.06a3.82,3.82,0,0,1-1.32,3.1,5,5,0,0,1-3.46,1.2,5.12,5.12,0,0,1-4.08-1.64A6.24,6.24,0,0,1,715.87,36v-.25a6.28,6.28,0,0,1,1.43-4.26,5.07,5.07,0,0,1,4.05-1.65A5,5,0,0,1,724.88,31a4.26,4.26,0,0,1,1.28,3.36l0,.06h-3.32a2.29,2.29,0,0,0-.37-1.35,1.26,1.26,0,0,0-1.11-.52,1.47,1.47,0,0,0-1.45.85,5.22,5.22,0,0,0-.41,2.27V36a5.19,5.19,0,0,0,.41,2.29A1.51,1.51,0,0,0,721.38,39.08Zm0-13.6h3.74l0,.06-3,2.79h-3Z"/><path class="cls-4" d="M739.09,32.84h.06L742.27,26h3.94L740.9,36.14v5.5h-3.62V36l-5.21-10H736Z"/><path class="cls-4" d="M752.94,35.28a14.59,14.59,0,0,1,1.59-7.08,7.64,7.64,0,0,1,3.74-3.73h.06l.66,1.71a7.22,7.22,0,0,0-2.27,3.27,16.07,16.07,0,0,0-.89,5.82v.34a16.06,16.06,0,0,0,.89,5.83A7.21,7.21,0,0,0,759,44.69l-.66,1.71h-.06a7.65,7.65,0,0,1-3.74-3.73,14.59,14.59,0,0,1-1.59-7.09Z"/><path class="cls-4" d="M765.45,39.08a1.38,1.38,0,0,0,1.08-.4,1.71,1.71,0,0,0,.36-1.17h3.32l0,.06a3.82,3.82,0,0,1-1.31,3.1,5,5,0,0,1-3.46,1.2,5.12,5.12,0,0,1-4.08-1.64A6.25,6.25,0,0,1,759.94,36v-.25a6.27,6.27,0,0,1,1.43-4.26,5.07,5.07,0,0,1,4-1.65A5,5,0,0,1,769,31a4.25,4.25,0,0,1,1.28,3.36l0,.06h-3.32a2.31,2.31,0,0,0-.37-1.35,1.26,1.26,0,0,0-1.11-.52,1.47,1.47,0,0,0-1.44.85,5.19,5.19,0,0,0-.41,2.27V36a5.17,5.17,0,0,0,.41,2.29A1.51,1.51,0,0,0,765.45,39.08Z"/><path class="cls-4" d="M775.14,30l.13,1.54a3.84,3.84,0,0,1,1.38-1.29,3.89,3.89,0,0,1,1.91-.46,3.56,3.56,0,0,1,1.87.47,2.92,2.92,0,0,1,1.18,1.44A3.9,3.9,0,0,1,783,30.31a3.79,3.79,0,0,1,2-.5A3.29,3.29,0,0,1,787.63,31a5.55,5.55,0,0,1,1,3.59v7.08H785V34.57a2.51,2.51,0,0,0-.35-1.55,1.29,1.29,0,0,0-1-.42,2.18,2.18,0,0,0-.93.19,2,2,0,0,0-.68.52c0,.12,0,.23,0,.32s0,.18,0,.26v7.76h-3.63V34.57A2.54,2.54,0,0,0,778,33a1.3,1.3,0,0,0-1.06-.42,2.11,2.11,0,0,0-.9.19,2,2,0,0,0-.68.52v8.34h-3.63V30Z"/><path class="cls-4" d="M796.41,35.59a14,14,0,0,1-1.69,7,7.89,7.89,0,0,1-3.89,3.81h-.06l-.65-1.71a7.45,7.45,0,0,0,2.26-3.27,15.83,15.83,0,0,0,.9-5.82v-.34a15.88,15.88,0,0,0-.9-5.82,7.37,7.37,0,0,0-2.26-3.27l.65-1.71h.06a7.88,7.88,0,0,1,3.89,3.81,14,14,0,0,1,1.69,7Z"/><rect class="cls-5" y="69.4" width="827.96" height="67.44"/><path class="cls-1" d="M119.1,106.5h-4.93l-.88,3h-3.65l5-15.64h3.9l5.06,15.64H120ZM115,103.71h3.32l-1.63-5.6h-.06Z"/><path class="cls-1" d="M110.71,176V160.35h5.37a8.19,8.19,0,0,1,4.54,1.08,3.6,3.6,0,0,1,1.63,3.22,3.77,3.77,0,0,1-.53,2,3.22,3.22,0,0,1-1.62,1.31,3.22,3.22,0,0,1,2,1.25,3.7,3.7,0,0,1,.66,2.17,4.08,4.08,0,0,1-1.54,3.46,7.15,7.15,0,0,1-4.4,1.17Zm3.64-9.12h1.8a3.18,3.18,0,0,0,1.85-.48,1.56,1.56,0,0,0,.61-1.34,1.69,1.69,0,0,0-.62-1.46,3.25,3.25,0,0,0-1.91-.46h-1.73Zm0,2.41v3.92h2.5a2.78,2.78,0,0,0,1.74-.46,1.67,1.67,0,0,0,.58-1.4,1.82,1.82,0,0,0-2.12-2.06Z"/><path class="cls-1" d="M304.4,109.54h-3.62v-12h-3.49V95l7.11-1.1Z"/><path class="cls-1" d="M320.39,109.54H309.44v-2.36l5-5.29a10.58,10.58,0,0,0,1.41-2,3.33,3.33,0,0,0,.45-1.49,2.15,2.15,0,0,0-.46-1.44,1.7,1.7,0,0,0-1.37-.54,1.47,1.47,0,0,0-1.28.69,3.09,3.09,0,0,0-.47,1.77H309.2l0-.06a4.89,4.89,0,0,1,1.42-3.68,5.2,5.2,0,0,1,3.9-1.51,5.9,5.9,0,0,1,4,1.27A4.38,4.38,0,0,1,320,98.41a4.57,4.57,0,0,1-.77,2.62,33.19,33.19,0,0,1-2.83,3.38l-2.12,2.27,0,.06h6.1Z"/><path class="cls-1" d="M333,103.37a6.89,6.89,0,0,1-1.47,4.79,5.69,5.69,0,0,1-7.95,0,6.89,6.89,0,0,1-1.47-4.79v-3.29a6.93,6.93,0,0,1,1.46-4.79,5.7,5.7,0,0,1,8,0,6.88,6.88,0,0,1,1.48,4.78Zm-3.62-3.53a5.23,5.23,0,0,0-.47-2.58,1.5,1.5,0,0,0-1.36-.78,1.48,1.48,0,0,0-1.36.78,5.4,5.4,0,0,0-.46,2.58v3.76a5.39,5.39,0,0,0,.46,2.6,1.5,1.5,0,0,0,1.38.78,1.48,1.48,0,0,0,1.35-.78,5.39,5.39,0,0,0,.46-2.6Z"/><path class="cls-2" d="M304.4,176h-3.62V164h-3.49v-2.56l7.11-1.1Z"/><path class="cls-2" d="M320.39,176H309.44v-2.36l5-5.29a10.58,10.58,0,0,0,1.41-2,3.33,3.33,0,0,0,.45-1.49,2.15,2.15,0,0,0-.46-1.44,1.7,1.7,0,0,0-1.37-.54,1.47,1.47,0,0,0-1.28.69,3.09,3.09,0,0,0-.47,1.77H309.2l0-.06a4.89,4.89,0,0,1,1.42-3.68,5.2,5.2,0,0,1,3.9-1.51,5.9,5.9,0,0,1,4,1.27,4.38,4.38,0,0,1,1.44,3.47,4.57,4.57,0,0,1-.77,2.62,33.19,33.19,0,0,1-2.83,3.38l-2.12,2.27,0,.06h6.1Z"/><path class="cls-2" d="M333,169.81a6.89,6.89,0,0,1-1.47,4.79,5.69,5.69,0,0,1-7.95,0,6.89,6.89,0,0,1-1.47-4.79v-3.29a6.93,6.93,0,0,1,1.46-4.79,5.7,5.7,0,0,1,8,0,6.88,6.88,0,0,1,1.48,4.78Zm-3.62-3.53a5.23,5.23,0,0,0-.47-2.58,1.5,1.5,0,0,0-1.36-.78,1.48,1.48,0,0,0-1.36.78,5.4,5.4,0,0,0-.46,2.58V170a5.39,5.39,0,0,0,.46,2.6,1.5,1.5,0,0,0,1.38.78,1.48,1.48,0,0,0,1.35-.78,5.39,5.39,0,0,0,.46-2.6Z"/><path class="cls-1" d="M511.8,98.08a3.64,3.64,0,0,1-.59,2,4.06,4.06,0,0,1-1.63,1.41,4.56,4.56,0,0,1,1.87,1.5,3.7,3.7,0,0,1,.68,2.19,4,4,0,0,1-1.5,3.36,7.19,7.19,0,0,1-7.87,0,4,4,0,0,1-1.51-3.36,3.7,3.7,0,0,1,.68-2.19,4.56,4.56,0,0,1,1.87-1.5,4,4,0,0,1-1.65-1.41,3.66,3.66,0,0,1-.58-2A4,4,0,0,1,503,94.83a6.57,6.57,0,0,1,7.44,0A4,4,0,0,1,511.8,98.08Zm-3.3,6.86a2.06,2.06,0,0,0-.5-1.47,1.74,1.74,0,0,0-1.33-.54,1.69,1.69,0,0,0-1.32.54,2.47,2.47,0,0,0,0,3,1.89,1.89,0,0,0,2.65,0A2.12,2.12,0,0,0,508.5,104.95Zm-.32-6.67a2.06,2.06,0,0,0-.39-1.32,1.36,1.36,0,0,0-1.13-.48,1.33,1.33,0,0,0-1.1.48,2.08,2.08,0,0,0-.38,1.33,2.19,2.19,0,0,0,.39,1.36,1.49,1.49,0,0,0,2.23,0A2.2,2.2,0,0,0,508.18,98.28Z"/><path class="cls-1" d="M524.86,103.37a6.89,6.89,0,0,1-1.47,4.79,5.69,5.69,0,0,1-7.95,0,6.89,6.89,0,0,1-1.47-4.79v-3.29a6.93,6.93,0,0,1,1.46-4.79,5.7,5.7,0,0,1,8,0,6.88,6.88,0,0,1,1.48,4.78Zm-3.62-3.53a5.23,5.23,0,0,0-.47-2.58,1.5,1.5,0,0,0-1.36-.78,1.48,1.48,0,0,0-1.36.78,5.4,5.4,0,0,0-.46,2.58v3.76a5.39,5.39,0,0,0,.46,2.6,1.5,1.5,0,0,0,1.38.78,1.48,1.48,0,0,0,1.35-.78,5.39,5.39,0,0,0,.46-2.6Z"/><path class="cls-1" d="M502.65,176H499V164h-3.49v-2.56l7.11-1.1Z"/><path class="cls-1" d="M518.55,169.81a6.89,6.89,0,0,1-1.47,4.79,5.69,5.69,0,0,1-7.95,0,6.89,6.89,0,0,1-1.47-4.79v-3.29a6.93,6.93,0,0,1,1.46-4.79,5.7,5.7,0,0,1,8,0,6.88,6.88,0,0,1,1.48,4.78Zm-3.62-3.53a5.23,5.23,0,0,0-.47-2.58,1.5,1.5,0,0,0-1.36-.78,1.48,1.48,0,0,0-1.36.78,5.4,5.4,0,0,0-.46,2.58V170a5.39,5.39,0,0,0,.46,2.6,1.5,1.5,0,0,0,1.37.78,1.48,1.48,0,0,0,1.35-.78,5.39,5.39,0,0,0,.46-2.6Z"/><path class="cls-1" d="M531.29,169.81a6.89,6.89,0,0,1-1.47,4.79,5.69,5.69,0,0,1-7.95,0,6.89,6.89,0,0,1-1.47-4.79v-3.29a6.93,6.93,0,0,1,1.46-4.79,5.7,5.7,0,0,1,8,0,6.88,6.88,0,0,1,1.48,4.78Zm-3.62-3.53a5.23,5.23,0,0,0-.47-2.58,1.5,1.5,0,0,0-1.36-.78,1.48,1.48,0,0,0-1.36.78,5.4,5.4,0,0,0-.46,2.58V170a5.39,5.39,0,0,0,.46,2.6,1.5,1.5,0,0,0,1.38.78,1.48,1.48,0,0,0,1.35-.78,5.39,5.39,0,0,0,.46-2.6Z"/><path class="cls-1" d="M700.9,109.54h-3.62v-12h-3.49V95l7.11-1.1Z"/><path class="cls-1" d="M716.89,109.54H705.94v-2.36l5-5.29a10.58,10.58,0,0,0,1.41-2,3.33,3.33,0,0,0,.45-1.49,2.15,2.15,0,0,0-.46-1.44,1.7,1.7,0,0,0-1.37-.54,1.47,1.47,0,0,0-1.28.69,3.09,3.09,0,0,0-.47,1.77H705.7l0-.06a4.89,4.89,0,0,1,1.42-3.68,5.2,5.2,0,0,1,3.9-1.51,5.9,5.9,0,0,1,4,1.27,4.38,4.38,0,0,1,1.44,3.47,4.57,4.57,0,0,1-.77,2.62,33.19,33.19,0,0,1-2.83,3.38l-2.12,2.27,0,.06h6.1Z"/><path class="cls-1" d="M729.54,103.37a6.89,6.89,0,0,1-1.47,4.79,5.69,5.69,0,0,1-7.95,0,6.89,6.89,0,0,1-1.47-4.79v-3.29a6.93,6.93,0,0,1,1.46-4.79,5.7,5.7,0,0,1,8,0,6.88,6.88,0,0,1,1.48,4.78Zm-3.62-3.53a5.23,5.23,0,0,0-.47-2.58,1.5,1.5,0,0,0-1.36-.78,1.48,1.48,0,0,0-1.36.78,5.4,5.4,0,0,0-.46,2.58v3.76a5.39,5.39,0,0,0,.46,2.6,1.5,1.5,0,0,0,1.38.78,1.48,1.48,0,0,0,1.35-.78,5.39,5.39,0,0,0,.46-2.6Z"/><path class="cls-2" d="M700.9,176h-3.62V164h-3.49v-2.56l7.11-1.1Z"/><path class="cls-2" d="M706.23,169.11l.9-8.77h9.17v2.79h-6.22l-.4,3.28a3.31,3.31,0,0,1,1-.5,4.94,4.94,0,0,1,1.34-.21,4.38,4.38,0,0,1,3.53,1.34,5.68,5.68,0,0,1,1.24,3.92,5.31,5.31,0,0,1-1.41,3.73,5.2,5.2,0,0,1-4,1.53,6.28,6.28,0,0,1-3.88-1.24,3.75,3.75,0,0,1-1.59-3.27l0-.06,3.54-.21a2,2,0,0,0,.52,1.46,1.86,1.86,0,0,0,1.38.53,1.5,1.5,0,0,0,1.4-.69,3.38,3.38,0,0,0,.41-1.76,3.83,3.83,0,0,0-.46-2,1.59,1.59,0,0,0-1.46-.74,2,2,0,0,0-1.18.31,1.62,1.62,0,0,0-.62.78Z"/><path class="cls-2" d="M729.54,169.81a6.89,6.89,0,0,1-1.47,4.79,5.69,5.69,0,0,1-7.95,0,6.89,6.89,0,0,1-1.47-4.79v-3.29a6.93,6.93,0,0,1,1.46-4.79,5.7,5.7,0,0,1,8,0,6.88,6.88,0,0,1,1.48,4.78Zm-3.62-3.53a5.23,5.23,0,0,0-.47-2.58,1.5,1.5,0,0,0-1.36-.78,1.48,1.48,0,0,0-1.36.78,5.4,5.4,0,0,0-.46,2.58V170a5.39,5.39,0,0,0,.46,2.6,1.5,1.5,0,0,0,1.38.78,1.48,1.48,0,0,0,1.35-.78,5.39,5.39,0,0,0,.46-2.6Z"/></g></g></svg>