<svg xmlns="http://www.w3.org/2000/svg" viewBox="0 0 306.11 48"><defs><style>.cls-1{fill:#13293d;}.cls-2{fill:#fff;}</style></defs><title>Zasób 1</title><g id="Warstwa_2" data-name="Warstwa 2"><g id="Warstwa_1-2" data-name="Warstwa 1"><g id="Warstwa_2-2" data-name="Warstwa 2"><g id="Warstwa_1-2-2" data-name="Warstwa 1-2"><path class="cls-1" d="M114.15,44.55c0,.66-.18.88-.85.87q-3.11-.06-6.2,0c-.66,0-.86-.17-.86-.85,0-4.31,0-8.63,0-13a11.84,11.84,0,0,0-.14-1.69c-.16-1.13-.52-2.11-1.72-2.45a3.33,3.33,0,0,0-3.49.85c-1.46,1.49-1.69,3.44-1.69,5.39q-.06,5.34,0,10.68c0,.83-.27,1-1,1-2-.05-4,0-6.05,0-.69,0-.85-.21-.84-.87q0-6,0-11.93a23.36,23.36,0,0,0-.18-2.76c-.25-2.06-1.53-2.9-3.57-2.39A3.44,3.44,0,0,0,85,29.85a15.53,15.53,0,0,0-.68,3.95c-.09,3.58,0,7.17,0,10.76,0,.6-.14.84-.79.83-2.1,0-4.2,0-6.31,0-.61,0-.83-.15-.83-.8V22.65c0-.43,0-.77.6-.77h6.89a1.79,1.79,0,0,1,.39.1v2.83c2-2.33,4.32-3.58,7.23-3.44A7.54,7.54,0,0,1,98,25.18l2-1.69c3.16-2.72,8.32-2.86,11.31-.25A8.11,8.11,0,0,1,114,29c.16,2.57.14,5.15.16,7.73S114.13,42,114.15,44.55Z"/><path class="cls-1" d="M67.89,30.49c-.13-4.83-2.58-7.69-7.33-8.66s-9.63-.32-14.47.73V28c0,.56.21.71.73.44A15.94,15.94,0,0,1,53,26.78a12.58,12.58,0,0,1,5.07.4,2.54,2.54,0,0,1,1.92,3.06h-5a19.83,19.83,0,0,0-6.21,1c-5.91,2-5.64,9.94-2.15,12.81s9.25,2.63,12.4-.46l1-1v2.13c0,.53.2.68.69.68h6.56c.48,0,.71-.12.7-.66C67.93,40,68,35.25,67.89,30.49Zm-13.7,10A2.53,2.53,0,0,1,52,38.1a2.43,2.43,0,0,1,1.86-2.65,7.46,7.46,0,0,1,2-.33c1.34,0,2.68,0,4.07,0A4.73,4.73,0,0,1,54.19,40.54Z"/><path class="cls-1" d="M193.17,30.29c-.17-4.75-2.63-7.52-7.27-8.46-4.86-1-9.63-.33-14.34.73V28.7a16.89,16.89,0,0,1,6.66-1.89,12.69,12.69,0,0,1,5.23.44,2.47,2.47,0,0,1,1.79,3c-1,0-2,0-3,0-.66,0-1.31,0-2,.07a30.55,30.55,0,0,0-5.7.86c-3.48,1-5.11,3.49-5.07,7.28a7.1,7.1,0,0,0,5.2,7.13c4,1.13,7.67.5,10.72-3v2.22c0,.43.1.67.61.67h6.72c.45,0,.57-.18.57-.6C193.23,40,193.35,35.13,193.17,30.29Zm-8.67,8.27a4.8,4.8,0,0,1-.55.71,4.61,4.61,0,0,1-4.55,1.25,2.47,2.47,0,0,1-2-2.36,2.35,2.35,0,0,1,1.69-2.66,5.09,5.09,0,0,1,.52-.15,6.49,6.49,0,0,1,1.07-.19l.54,0c.58,0,1.16,0,1.73,0,.77,0,1.54,0,2.33,0a5.7,5.7,0,0,1-.06,1.66A4.81,4.81,0,0,1,184.5,38.56Z"/><path class="cls-1" d="M162.79,44.55c0,.64-.14.89-.83.87q-3.11-.07-6.2,0c-.73,0-.88-.25-.87-.92v-13c0-.33-.05-.67-.07-1-.1-1.46-.63-2.65-2.16-3a4,4,0,0,0-4.13,1.18,7.47,7.47,0,0,0-1.59,5.26V44.44c0,.71-.15,1-.92,1-2.07-.06-4.15,0-6.2,0-.46,0-.73-.06-.73-.63V22.33a2.48,2.48,0,0,1,.1-.43h3.08c1.26,0,2.53,0,3.78,0,.72,0,.94.24.89.92s0,1.2,0,2c.61-.56,1-1,1.52-1.33a9.38,9.38,0,0,1,9.35-1.56c3.12,1.05,4.43,3.62,4.84,6.69a32.15,32.15,0,0,1,.18,4.11C162.79,36.66,162.76,40.61,162.79,44.55Z"/><path class="cls-1" d="M41.22,39.82c-.36,1.35-.69,2.61-1,3.86-.46,1.69-.47,1.69-2.22,1.69H0c.34-1.78.65-3.49,1-5.18,0-.15.27-.31.44-.37a1.76,1.76,0,0,1,.56,0Z"/><path class="cls-1" d="M42.39,31.41c-.61,1.86-1.17,3.61-1.78,5.34-.06.16-.52.25-.79.25H1.57c.34-1.82.65-3.52,1-5.22,0-.15.28-.29.46-.36a1.41,1.41,0,0,1,.5,0Z"/><path class="cls-1" d="M130.41,22.56V45a2,2,0,0,1-.08.34,5.83,5.83,0,0,1-.68.07h-6.3c-.56,0-.8-.1-.8-.73V22.58a5.81,5.81,0,0,1,.07-.59,4.75,4.75,0,0,1,.6-.08h6.47C130.17,21.93,130.41,22,130.41,22.56Z"/><path d="M298,20.81a12.49,12.49,0,0,0-6.43,1.84c.5-2.81,1-5.45,1.44-8.09.27-1.46-.27-2.15-1.74-2.15H285c-1.66,0-1.83.17-2.12,1.8q-2.71,15.45-5.47,30.91c-.23,1.35.37,2.12,1.73,2.12h6.64c1.12,0,1.55-.35,1.75-1.48.53-3,1-6,1.57-8.93a15.34,15.34,0,0,1,1.4-5.15A4.24,4.24,0,0,1,294,29.17c1.29,0,1.65.32,1.63,1.62a6.78,6.78,0,0,1-.1,1q-1.12,6.77-2.31,13.49a1.5,1.5,0,0,0,1.55,2h7.07c1,0,1.34-.36,1.52-1.32.32-1.77.64-3.53.93-5.29.62-3.67,1.44-7.33,1.76-11C306.53,24.43,303.88,20.81,298,20.81Zm6.89,9.38c-.11,1.24-.35,2.46-.56,3.69-.66,3.86-1.36,7.71-2,11.57a5.73,5.73,0,0,1-.16.62h-7.36a.69.69,0,0,1-.22,0c-.32-.09-.3-.38-.23-.71.69-3.83,1.36-7.66,2-11.49.14-.8.22-1.6.35-2.4a3,3,0,0,0-.65-2.81l-.18-.15-.2-.13a2.37,2.37,0,0,0-.66-.25l-.25,0a4.89,4.89,0,0,0-1.83.12,5.56,5.56,0,0,0-3.58,3.09c-1,1.81-1.13,3.84-1.51,5.81-.56,3-1,5.94-1.6,9h-4.48c-.84,0-1.69,0-2.52,0a1.63,1.63,0,0,1-.47,0h0a.53.53,0,0,1-.15-.08c-.18-.15-.18-.42-.1-.81.52-2.82,1-5.64,1.5-8.42q2-11.23,4-22.47c.1-.57.33-.71.86-.71,2.08,0,4.15,0,6.21,0a2.25,2.25,0,0,1,.4,0,.69.69,0,0,1,.23.1c.24.14.25.42.16.87-.61,3.27-1.18,6.55-1.77,9.83a1,1,0,0,0,0,.17,0,0,0,0,1,0,0c0,.19,0,.38,0,.55l0,0c1.27-.77,2.45-1.62,3.74-2.25a8.94,8.94,0,0,1,1-.39,9.88,9.88,0,0,1,5.47-.24,5.67,5.67,0,0,1,4.62,5.11,10.55,10.55,0,0,1,.1,2.24C305,29.78,304.94,30,304.92,30.19Z"/><path d="M219.28,17.4h-6.77c.33-1.89.63-3.65.94-5.41.26-1.52-.31-2.26-1.85-2.26h-7.49c-1.61,0-1.88.24-2.15,1.81-.33,1.93-.68,3.85-1,5.85H198c-1.05,0-1.41.3-1.6,1.33q-.54,2.84-1,5.7c-.21,1.31.37,2,1.69,2h2.26c-.46,2.6-.94,5-1.31,7.49a42.9,42.9,0,0,0-.69,6.4,6.07,6.07,0,0,0,4.25,6.21,8.38,8.38,0,0,0,2.36.56c3.44.11,6.89.15,10.33.19.78,0,1.19-.49,1.32-1.26.3-1.8.63-3.58,1-5.37s-.26-2.4-2-2.41h-4.7c-.66,0-.92-.28-.8-.94s.23-1.49.36-2.25c.49-2.82,1-5.67,1.52-8.57h7.43c1.22,0,1.51-.24,1.74-1.46.33-1.81.63-3.64,1-5.45C221.26,18.16,220.67,17.42,219.28,17.4Zm.62,2h0c-.32,1.7-.66,3.35-.89,5-.1.73-.41.82-1,.82-2.41,0-4.82,0-7.23,0-.62,0-.85.16-.95.81-.6,3.58-1.27,7.15-1.89,10.71a3.46,3.46,0,0,0,0,1.22,1.24,1.24,0,0,0,.15.47,1.57,1.57,0,0,0,.19.26,2.46,2.46,0,0,0,1.77.58c1.54.07,3.08.06,4.61,0,.5,0,.76.08.86.31a1.21,1.21,0,0,1,0,.69c-.18,1-.35,1.9-.52,2.86s-.33,1.93-.51,2.95c-3.55-.09-7,0-10.48-.3l-.57-.06a.58.58,0,0,1-.19,0,7,7,0,0,1-1.07-.25,4.69,4.69,0,0,1-3.4-3.55,7.54,7.54,0,0,1-.2-2.24,72.23,72.23,0,0,1,1.06-7.89c.33-2.15.75-4.28,1.13-6.57h-3.35a1.78,1.78,0,0,1-.51-.06.41.41,0,0,1-.27-.22,1,1,0,0,1,0-.64c.29-1.43.54-2.88.79-4.34.09-.49.17-1,.26-1.47h3.59a.79.79,0,0,0,.65-.2.94.94,0,0,0,.17-.46h0c.18-1.14.38-2.28.59-3.43s.42-2.33.64-3.52h8.21a3.12,3.12,0,0,1,.6,0,.51.51,0,0,1,.21.09.16.16,0,0,1,.06.08c.08.14,0,.39,0,.8-.37,2-.73,4-1.06,5.94h0q0,.33,0,.66h8.1a1,1,0,0,1,.43.14.32.32,0,0,1,.13.15A1,1,0,0,1,219.9,19.43Z"/><path d="M240.09,21.14a17.39,17.39,0,0,0-6.27-.12,15.18,15.18,0,0,0-10.37,5.9,16.72,16.72,0,0,0-3.27,10.39A9.47,9.47,0,0,0,224.9,46a13.93,13.93,0,0,0,6.23,1.79,32.38,32.38,0,0,0,13-2,1.5,1.5,0,0,0,1.06-1.27c.28-1.7.61-3.39.88-5a11.09,11.09,0,0,0,0-1.63c1.12-.24,1.45-.42,1.58-1.2a44.13,44.13,0,0,0,.67-4.73A10,10,0,0,0,240.09,21.14Zm7.06,10.09v.15c-.06,1.55-.35,3.11-.5,4.66,0,.38-.19.51-.4.55h-.12a2.25,2.25,0,0,1-.37,0H229.24a5.89,5.89,0,0,0,.08,1.14,3.73,3.73,0,0,0,2.41,3.1,5.76,5.76,0,0,0,1.27.31,5.61,5.61,0,0,0,.59.06H234a18.59,18.59,0,0,0,6.18-.91h0c.55-.18,1.09-.37,1.63-.57h0l1.08-.44s0,0,0,0l.53-.24c.44-.2.91-.31,1.38-.47h0a12.87,12.87,0,0,1,0,1.52c-.2,1.32-.43,2.65-.7,3.94a1,1,0,0,1-.53.63,29,29,0,0,1-14,1.69,10.94,10.94,0,0,1-2-.48,9.35,9.35,0,0,1-3.82-2.35,8.28,8.28,0,0,1-2.21-4.28,14.61,14.61,0,0,1,3.19-12c.14-.16.27-.32.42-.48a4.57,4.57,0,0,1,.43-.45,8.38,8.38,0,0,1,.93-.86,10.74,10.74,0,0,1,1-.78,6.19,6.19,0,0,1,.53-.36,13.76,13.76,0,0,1,2.28-1.2c.36-.15.73-.29,1.11-.41l.76-.22a11.24,11.24,0,0,1,1.18-.27l.14,0a16.4,16.4,0,0,1,7.47.31l.68.22a8.56,8.56,0,0,1,5.53,8A4.53,4.53,0,0,1,247.15,31.23Zm-4.08,6.56a16,16,0,0,1-5.7,2,23.21,23.21,0,0,1-4.17.17,2.46,2.46,0,0,1-2.63-2.17Z"/><path d="M274.78,22a20.84,20.84,0,0,0-9-1.17,16.49,16.49,0,0,0-10,4c-3.95,3.57-5.43,8.16-5.11,13.33A9.45,9.45,0,0,0,258,47c1.77.48,3.62.65,5.43,1v-.21A22.51,22.51,0,0,0,271,46.54a1.77,1.77,0,0,0,1.05-1c.43-2,.74-4,1.09-5.94a1.32,1.32,0,0,0-.57-1.46,1.44,1.44,0,0,0-1.66,0l-.43.25a9.82,9.82,0,0,1-6.28,1.37,3.2,3.2,0,0,1-3-3.26,12.21,12.21,0,0,1,.17-2.17,6.21,6.21,0,0,1,5-5.31,8,8,0,0,1,6,1.4c1.23.89,2.35.4,2.62-1.13.31-1.76.62-3.53.94-5.29C276.1,22.85,275.86,22.43,274.78,22Zm-2,7.25a11.36,11.36,0,0,0-1.3-.74,10.89,10.89,0,0,0-1.19-.47A8.31,8.31,0,0,0,267,27.7a7.71,7.71,0,0,0-1.24.23s0,0,0,0a9,9,0,0,0-1.27.43,6.49,6.49,0,0,0-2,1.36,6.3,6.3,0,0,0-1.14,1.47l-.22.41a8.41,8.41,0,0,0-.37.87l-.15.46a9.71,9.71,0,0,0-.34,1.46,8.47,8.47,0,0,0-.07,2.66,4.62,4.62,0,0,0,.89,2.19,4,4,0,0,0,1.79,1.29,6.19,6.19,0,0,0,1.63.34,11.47,11.47,0,0,0,6.09-1.23c.24-.12.46-.24.69-.38l.37-.12a2.19,2.19,0,0,1,.37-.07h0c0,.11,0,.23,0,.34v0c0,.12,0,.23,0,.35-.29,1.69-.57,3.38-.9,5a1.06,1.06,0,0,1-.64.71c-4.38,1.47-4.63.94-7,1.39h0l0-.21v0h0a20.27,20.27,0,0,1-4.35-.47,11,11,0,0,1-1.84-.6,10.37,10.37,0,0,1-1.32-.69c-.16-.09-.31-.19-.46-.29a4.16,4.16,0,0,1-.45-.32,7.76,7.76,0,0,1-.8-.72,7.66,7.66,0,0,1-.71-.8h0a10.28,10.28,0,0,1-.58-.88,7.68,7.68,0,0,1-.66-1.46c-.06-.17-.11-.34-.16-.51a4.54,4.54,0,0,1-.12-.53,8.24,8.24,0,0,1-.16-1.65,18.27,18.27,0,0,1,.29-4A14.73,14.73,0,0,1,253.29,30a11.19,11.19,0,0,1,.65-1.17,13.13,13.13,0,0,1,.77-1.12l.43-.54c.17-.2.34-.4.52-.59A14.85,14.85,0,0,1,265.55,22a20.14,20.14,0,0,1,8.61,1,1.32,1.32,0,0,1,.46.25.44.44,0,0,1,.12.19,1,1,0,0,1,0,.51c-.32,1.62-.57,3.25-.88,4.87-.12.63-.2.84-.49.75A2.55,2.55,0,0,1,272.83,29.29Z"/><path class="cls-1" d="M21.43,0c-.34,1.69-.63,3.25-1,4.81a.68.68,0,0,1-.49.42c-4.11,0-8.22,0-12.32,0l-.16-.11c.29-1.56.56-3.18.9-4.78A.56.56,0,0,1,8.81,0Z"/><path class="cls-1" d="M19.9,7.76c-.31,1.55-.61,3.11-1,4.66a.61.61,0,0,1-.47.34H6.07c.31-1.69.56-3.23.9-4.75a.67.67,0,0,1,.51-.39H19.59A2.57,2.57,0,0,1,19.9,7.76Z"/><path class="cls-1" d="M16.73,23.58c-.3,1.53-.6,3.08-.94,4.62a.68.68,0,0,1-.52.37H3.42a1.13,1.13,0,0,1-.25-.1c.29-1.54.56-3.06.87-4.56a.74.74,0,0,1,.56-.45H16.54A1.43,1.43,0,0,0,16.73,23.58Z"/><path class="cls-1" d="M18.31,15.71c-.34,1.66-.67,3.3-1,5H4.6c.29-1.59.56-3.12.89-4.65A.75.75,0,0,1,6,15.61h12A1.18,1.18,0,0,1,18.31,15.71Z"/><path class="cls-1" d="M130.4,19.36h-7.33a.7.7,0,0,1-.47-.49c0-1.79,0-3.58,0-5.37,0-.17.36-.49.56-.49q3.36-.05,6.71,0a.7.7,0,0,1,.52.46C130.41,15.37,130.4,17.3,130.4,19.36Z"/><path class="cls-1" d="M185.2,36.78a5.7,5.7,0,0,0,.06-1.66c-.79,0-1.56,0-2.33,0h2.34A5.82,5.82,0,0,1,185.2,36.78Z"/><path class="cls-2" d="M290.06,25.1c1.26-.77,2.45-1.62,3.74-2.26a9.77,9.77,0,0,1,6.47-.65,5.67,5.67,0,0,1,4.61,5.11,20.44,20.44,0,0,1-.56,6.58c-.66,3.86-1.35,7.71-2,11.57,0,.19-.1.37-.16.62h-7.33c-.56,0-.56-.34-.47-.74q1-5.74,2-11.48c.14-.8.23-1.61.36-2.41.47-2.82-1.25-3.86-3.77-3.27a5.55,5.55,0,0,0-3.58,3.08c-1,1.82-1.13,3.84-1.51,5.81-.56,3-1.05,5.94-1.6,9h-4.45c-.84,0-1.69,0-2.52,0s-.91-.25-.78-.94c.51-2.82,1-5.64,1.5-8.42,1.33-7.49,2.67-15,4-22.47.1-.56.34-.71.87-.7,2.08,0,4.15,0,6.2,0,.82,0,.93.29.8,1-.61,3.27-1.18,6.55-1.77,9.82A3.91,3.91,0,0,1,290.06,25.1Z"/><path class="cls-2" d="M214.4,46.16c-3.55-.08-7,0-10.48-.3-3.72-.3-5.6-2.42-5.43-6.13a73.59,73.59,0,0,1,1.06-7.9c.33-2.15.75-4.29,1.13-6.57h-3.34c-.7,0-.94-.17-.79-.92.39-1.91.69-3.85,1-5.82h3.59c.5,0,.73-.1.82-.67.37-2.29.8-4.57,1.23-7h8.21c1,0,1,.08.85,1q-.56,3-1.07,5.94a4.4,4.4,0,0,0,0,.67h7.9c.68,0,.9.23.77.9-.33,1.69-.67,3.35-.9,5-.1.72-.41.82-1,.82-2.41,0-4.82,0-7.23,0-.62,0-.85.16-1,.81-.6,3.59-1.26,7.16-1.89,10.72-.3,1.75.23,2.44,2.06,2.53,1.54.07,3.08.06,4.62,0,.82,0,1,.24.86,1C215,42.24,214.75,44.12,214.4,46.16Z"/><path class="cls-2" d="M246.46,27.34a8.63,8.63,0,0,0-4.82-4.59l-.68-.22a16.4,16.4,0,0,0-7.47-.31c-.45.08-.89.17-1.32.29l-.76.22c-.38.13-.75.26-1.11.41a15.45,15.45,0,0,0-2.28,1.2l-.53.36c-.34.25-.68.5-1,.78s-.63.56-.93.86l-.43.45c-.15.16-.28.32-.42.48a14.61,14.61,0,0,0-3.2,11.88l0,.14a8.34,8.34,0,0,0,2.19,4.27,9.35,9.35,0,0,0,3.82,2.35,11.69,11.69,0,0,0,2,.49,29,29,0,0,0,14-1.69,1,1,0,0,0,.53-.63c.27-1.31.5-2.63.7-3.95a12.8,12.8,0,0,0,0-1.52h0c-.46.15-.93.28-1.37.47l-.54.23s0,0,0,0c-.36.16-.72.3-1.08.44h0c-.54.21-1.08.4-1.63.57h0a18.34,18.34,0,0,1-6.18.91h-.44a5.61,5.61,0,0,1-.59-.06,5.76,5.76,0,0,1-1.27-.31,3.73,3.73,0,0,1-2.41-3.1,6.84,6.84,0,0,1-.07-1.14h16.51a2.25,2.25,0,0,0,.37,0h.12c.22,0,.38-.16.42-.54.14-1.56.43-3.11.48-4.67v-.15c0-.17,0-.34,0-.51A8.56,8.56,0,0,0,246.46,27.34Zm-7.24,4.17h-8.84a1.13,1.13,0,0,1,0-.18,1.55,1.55,0,0,1,.08-.36,6,6,0,0,1,.39-.81,4.63,4.63,0,0,1,.48-.68c.09-.11.18-.22.28-.32a2.13,2.13,0,0,1,.3-.3,5.66,5.66,0,0,1,4.59-1.48,3.13,3.13,0,0,1,1.63.65,1.29,1.29,0,0,1,.21.19A3.44,3.44,0,0,1,239.22,31.51Z"/><path class="cls-2" d="M263.38,46.67a14.38,14.38,0,0,1-7.51-1.76,8.28,8.28,0,0,1-4.12-7.18,15.08,15.08,0,0,1,3.38-10.55,14.7,14.7,0,0,1,10.41-5.13,20.08,20.08,0,0,1,8.61,1c.52.18.71.4.6,1-.32,1.62-.56,3.25-.88,4.87-.17.92-.26.95-1,.43a8.55,8.55,0,0,0-8.39-.92c-2.62,1.1-3.83,3.34-4.27,6a8.6,8.6,0,0,0-.07,2.66,4.3,4.3,0,0,0,4.31,3.82,11.46,11.46,0,0,0,6.77-1.61,2.75,2.75,0,0,1,.75-.19,3.71,3.71,0,0,1,0,.72c-.28,1.69-.56,3.38-.89,5a1.07,1.07,0,0,1-.64.7"/><path d="M238.37,28.22l-.21-.19a3.11,3.11,0,0,0-1.63-.63,5.72,5.72,0,0,0-4.59,1.46q-.15.14-.3.3c-.1.1-.19.21-.28.32a6.88,6.88,0,0,0-.48.68,6,6,0,0,0-.39.81,1.55,1.55,0,0,0-.08.36,1.19,1.19,0,0,0,0,.2h8.85v0A3.44,3.44,0,0,0,238.37,28.22Zm-1.22.54a1.66,1.66,0,0,1,1,1.6h-5.82A4.07,4.07,0,0,1,237.15,28.76Z"/></g></g></g></g></svg>